<?xml version="1.0" encoding="UTF-8" standalone="no"?>
<!-- Generator: Adobe Illustrator 19.1.0, SVG Export Plug-In . SVG Version: 6.00 Build 0)  -->

<svg
   xmlns:dc="http://purl.org/dc/elements/1.1/"
   xmlns:cc="http://creativecommons.org/ns#"
   xmlns:rdf="http://www.w3.org/1999/02/22-rdf-syntax-ns#"
   xmlns:svg="http://www.w3.org/2000/svg"
   xmlns="http://www.w3.org/2000/svg"
   xmlns:sodipodi="http://sodipodi.sourceforge.net/DTD/sodipodi-0.dtd"
   xmlns:inkscape="http://www.inkscape.org/namespaces/inkscape"
   version="1.1"
   id="Capa_1"
   x="0px"
   y="0px"
   viewBox="0 0 851.2284 198.91199"
   xml:space="preserve"
   sodipodi:docname="logo.svg"
   width="851.22839"
   height="198.91199"
   inkscape:version="0.92.4 (5da689c313, 2019-01-14)"><metadata
   id="metadata3801"><rdf:RDF><cc:Work
       rdf:about=""><dc:format>image/svg+xml</dc:format><dc:type
         rdf:resource="http://purl.org/dc/dcmitype/StillImage" /><dc:title /></cc:Work></rdf:RDF></metadata><defs
   id="defs3799" /><sodipodi:namedview
   pagecolor="#ffffff"
   bordercolor="#666666"
   borderopacity="1"
   objecttolerance="10"
   gridtolerance="10"
   guidetolerance="10"
   inkscape:pageopacity="0"
   inkscape:pageshadow="2"
   inkscape:window-width="882"
   inkscape:window-height="753"
   id="namedview3797"
   showgrid="false"
   inkscape:zoom="0.3742109"
   inkscape:cx="387.64933"
   inkscape:cy="37.257228"
   inkscape:window-x="402"
   inkscape:window-y="113"
   inkscape:window-maximized="0"
   inkscape:current-layer="g3764" />
<g
   id="g3764"
   transform="translate(-212.10546,-42.380502)">
	
	<path
   sodipodi:type="inkscape:offset"
   inkscape:radius="0"
   inkscape:original="M 267.21094 49.394531 C 242.43529 49.394531 219.14338 59.043367 201.625 76.5625 C 184.10511 94.081633 174.45703 117.37474 174.45703 142.15039 C 174.45703 161.19988 180.16103 179.37262 190.75977 194.71875 C 184.5154 181.89996 181.00977 167.51362 181.00977 152.32227 C 181.00977 108.6375 216.54959 73.095703 260.23438 73.095703 C 296.01923 73.095703 325.13281 102.20928 325.13281 137.99414 C 325.13281 167.458 301.16189 191.42969 271.69727 191.42969 C 247.28885 191.42969 227.42969 171.57248 227.42969 147.16406 C 227.42969 126.80044 243.99771 110.23437 264.36133 110.23438 C 281.48896 110.23438 295.42188 124.1673 295.42188 141.29492 C 295.42188 145.4854 292.02566 148.88281 287.83594 148.88281 C 283.64622 148.88281 280.24805 145.4854 280.24805 141.29492 C 280.24805 132.5346 273.1209 125.4082 264.36133 125.4082 C 252.36577 125.4082 242.60547 135.16774 242.60547 147.16406 C 242.60547 163.20518 255.65539 176.25586 271.69727 176.25586 C 292.79459 176.25586 309.95898 159.0907 309.95898 137.99414 C 309.95898 110.57658 287.65193 88.271484 260.23438 88.271484 C 224.91689 88.271484 196.18359 117.00479 196.18359 152.32227 C 196.18359 197.3796 232.73179 234.05731 277.73828 234.27734 C 331.33438 215.54575 377.48408 126.04381 316.07227 63.275391 C 301.54179 54.235852 284.74904 49.394531 267.21094 49.394531 z "
   style="fill:#ff8598;fill-opacity:1;stroke-width:0.7587325"
   id="path3760"
   d="m 267.21094,49.394531 c -24.77565,0 -48.06756,9.648836 -65.58594,27.167969 -17.51989,17.519133 -27.16797,40.81224 -27.16797,65.58789 0,19.04949 5.704,37.22223 16.30274,52.56836 -6.24437,-12.81879 -9.75,-27.20513 -9.75,-42.39648 0,-43.68477 35.53982,-79.226567 79.22461,-79.226567 35.78485,0 64.89843,29.113577 64.89843,64.898437 0,29.46386 -23.97092,53.43555 -53.43554,53.43555 -24.40842,0 -44.26758,-19.85721 -44.26758,-44.26563 0,-20.36362 16.56802,-36.92969 36.93164,-36.92968 17.12763,0 31.06055,13.93292 31.06055,31.06054 0,4.19048 -3.39622,7.58789 -7.58594,7.58789 -4.18972,0 -7.58789,-3.39741 -7.58789,-7.58789 0,-8.76032 -7.12715,-15.88672 -15.88672,-15.88672 -11.99556,0 -21.75586,9.75954 -21.75586,21.75586 0,16.04112 13.04992,29.0918 29.0918,29.0918 21.09732,0 38.26171,-17.16516 38.26171,-38.26172 0,-27.41756 -22.30705,-49.722656 -49.7246,-49.722656 -35.31749,0 -64.05079,28.733306 -64.05079,64.050786 0,45.05733 36.5482,81.73504 81.55469,81.95507 53.5961,-18.73159 99.7458,-108.23353 38.33399,-171.001949 -14.53048,-9.039539 -31.32323,-13.88086 -48.86133,-13.88086 z"
   transform="matrix(0.79764447,0,0,0.80691112,72.950776,2.5235057)" />
	

<g
   aria-label="babyface"
   transform="matrix(0.96689608,0,0,1.0342373,7.5583772,-7.8976703e-7)"
   style="font-style:normal;font-variant:normal;font-weight:normal;font-stretch:normal;font-size:180.75866699px;line-height:1.25;font-family:kalam;-inkscape-font-specification:kalam;letter-spacing:0px;word-spacing:0px;fill:#ffffff;fill-opacity:1;stroke:none;stroke-width:4.51896667"
   id="text3928"><path
     d="m 431.12238,91.770737 q 8.3149,0 15.72601,9.218693 7.59186,9.21869 7.59186,17.53359 0,8.3149 -3.79593,19.52194 -3.79593,11.20703 -10.12248,21.69104 -6.32656,10.484 -15.90677,17.71435 -9.58021,7.23034 -20.06421,7.23034 -10.30324,0 -23.49863,-9.94172 -3.61517,10.12248 -5.96503,10.12248 -3.79593,0 -9.58021,-6.32655 -5.78428,-6.32656 -5.78428,-10.30325 0,-3.97669 5.96504,-26.02924 17.89511,-66.157677 17.89511,-95.802098 0,-5.42276 5.242,-5.42276 4.15745,0 11.20703,7.953381 7.04959,7.772623 7.04959,14.641452 0,16.087521 -9.21869,50.070155 20.60649,-21.871803 33.25959,-21.871803 z m -29.2829,72.122713 q 9.94173,0 20.24497,-15.54525 10.484,-15.54524 10.484,-30.54821 0,-1.08456 -0.54227,-1.26531 -0.36152,-0.36152 -2.34986,-0.36152 -9.94173,0 -21.32953,11.93007 -11.20703,11.93007 -19.88345,29.82518 7.59186,5.96504 13.37614,5.96504 z"
     style="font-style:normal;font-variant:normal;font-weight:bold;font-stretch:normal;font-family:kalam;-inkscape-font-specification:'kalam Bold';fill:#ffffff;stroke-width:4.51896667"
     id="path3980"
     inkscape:connector-curvature="0" /><path
     d="m 540.19329,133.52599 q 3.25366,2.89214 3.25366,5.242 0,2.34986 -2.16911,9.76097 -2.1691,7.4111 -2.89214,11.56855 -0.72303,3.97669 -1.26531,6.32656 -0.36151,2.34986 -0.54227,3.79593 -0.18076,1.26531 -0.72304,3.25366 -0.36151,1.98834 -0.72303,3.25365 -0.18076,1.08455 -0.72304,2.71138 -0.36151,1.44607 -0.90379,2.34986 -0.54228,0.72304 -1.26531,1.62683 -1.08455,1.44607 -3.61517,1.44607 -2.53063,0 -6.32656,-5.06124 -3.61517,-5.06124 -5.42276,-12.29159 -16.99131,17.35283 -28.55987,17.35283 -7.77262,0 -16.81055,-8.49566 -9.03794,-8.67641 -9.03794,-17.17207 0,-8.67642 7.77263,-24.58318 7.77262,-15.90676 21.14876,-29.46366 13.5569,-13.556902 26.75228,-13.556902 7.59187,0 17.53359,8.857172 9.94173,8.85718 9.94173,16.26828 0,7.23035 -5.42276,16.81056 z m -52.60077,28.55987 q 7.23035,0 19.16042,-9.76097 12.11083,-9.94173 15.00297,-24.94469 0.18076,-2.16911 3.07289,-2.53063 -0.54227,-10.30324 -3.43441,-10.30324 -7.23035,0 -16.26828,9.39945 -8.85718,9.39945 -14.64145,20.06421 -5.60352,10.66476 -5.60352,15.72601 0,1.44607 0.36152,1.98834 0.54227,0.36152 2.34986,0.36152 z"
     style="font-style:normal;font-variant:normal;font-weight:bold;font-stretch:normal;font-family:kalam;-inkscape-font-specification:'kalam Bold';fill:#ffffff;stroke-width:4.51896667"
     id="path3982"
     inkscape:connector-curvature="0" /><path
     d="m 625.64977,91.770737 q 8.3149,0 15.72601,9.218693 7.59186,9.21869 7.59186,17.53359 0,8.3149 -3.79593,19.52194 -3.79593,11.20703 -10.12249,21.69104 -6.32655,10.484 -15.90676,17.71435 -9.58021,7.23034 -20.06421,7.23034 -10.30324,0 -23.49863,-9.94172 -3.61517,10.12248 -5.96503,10.12248 -3.79593,0 -9.58021,-6.32655 -5.78428,-6.32656 -5.78428,-10.30325 0,-3.97669 5.96504,-26.02924 17.8951,-66.157677 17.8951,-95.802098 0,-5.42276 5.24201,-5.42276 4.15745,0 11.20703,7.953381 7.04959,7.772623 7.04959,14.641452 0,16.087521 -9.21869,50.070155 20.60649,-21.871803 33.25959,-21.871803 z m -29.2829,72.122713 q 9.94173,0 20.24497,-15.54525 10.484,-15.54524 10.484,-30.54821 0,-1.08456 -0.54227,-1.26531 -0.36152,-0.36152 -2.34987,-0.36152 -9.94172,0 -21.32952,11.93007 -11.20704,11.93007 -19.88345,29.82518 7.59186,5.96504 13.37614,5.96504 z"
     style="font-style:normal;font-variant:normal;font-weight:bold;font-stretch:normal;font-family:kalam;-inkscape-font-specification:'kalam Bold';fill:#ffffff;stroke-width:4.51896667"
     id="path3984"
     inkscape:connector-curvature="0" /><path
     d="m 725.32122,96.108945 q 1.08455,-4.518967 5.96504,-4.518967 4.88048,0 9.94172,6.145791 5.24201,6.145801 5.24201,13.918421 0,4.51897 -3.25366,14.27994 -3.25366,9.76096 -4.69973,13.91841 -1.26531,4.15745 -3.79593,11.3878 -2.53062,7.04959 -4.69972,13.19538 -1.98835,5.96504 -5.60352,16.08752 -3.43442,10.12249 -6.32655,18.7989 -5.60352,16.26828 -13.73766,25.12546 -7.95338,8.85717 -20.78725,8.85717 -12.83387,0 -22.95635,-6.86883 -10.12249,-6.68807 -10.12249,-13.5569 0,-4.15744 3.61518,-9.21869 3.79593,-5.06124 6.32655,-5.06124 2.71138,0 6.86883,4.15745 4.33821,4.33821 8.85717,8.49566 4.51897,4.3382 7.95339,4.3382 2.34986,0 3.79593,-2.1691 1.62683,-2.1691 2.53062,-3.97669 1.08455,-1.62683 2.1691,-4.69973 1.08456,-2.89213 1.98835,-5.42276 0.90379,-2.53062 2.1691,-6.68807 1.26531,-4.15745 2.16911,-7.4111 3.07289,-9.76097 5.242,-17.35283 -5.96504,7.77262 -12.29159,12.47234 -6.32655,4.51897 -11.74931,4.51897 -5.24201,0 -13.19539,-7.95338 -7.77262,-8.13414 -7.77262,-17.71435 0,-9.76097 4.15745,-26.02925 4.33821,-16.26828 10.66476,-28.92138 6.32655,-12.653112 11.20704,-12.653112 5.60352,0 10.484,4.880484 5.06124,4.699728 5.06124,9.218698 0,4.3382 -4.51896,14.09917 -4.33821,9.76097 -8.85718,21.32952 -4.51896,11.56856 -4.51896,19.7027 0,1.08455 0.90379,1.08455 2.34986,0 9.94173,-8.67642 7.59186,-8.85717 16.99131,-24.94469 9.58021,-16.26828 14.64145,-32.175045 z"
     style="font-style:normal;font-variant:normal;font-weight:bold;font-stretch:normal;font-family:kalam;-inkscape-font-specification:'kalam Bold';fill:#ffffff;stroke-width:4.51896667"
     id="path3986"
     inkscape:connector-curvature="0" /><path
     d="m 821.76163,77.129285 q -0.72303,-4.157449 -2.34986,-7.591864 -1.62683,-3.434415 -3.97669,-3.434415 -2.1691,0 -4.51897,3.253656 -2.1691,3.253656 -4.3382,10.664762 -3.43442,11.568554 -6.86883,26.933046 13.73765,-0.72304 20.60648,-0.72304 7.04959,0 10.48401,2.16911 3.43441,1.98834 3.43441,4.88048 0,5.60352 -10.12248,8.67642 -10.12249,3.07289 -29.28291,5.96503 -9.03793,37.77856 -12.6531,47.35877 -3.61518,9.39945 -7.95339,9.39945 -3.43441,0 -8.13414,-5.60352 -4.51896,-5.78427 -4.51896,-8.67641 0,-2.89214 1.26531,-6.86883 5.60352,-15.72601 8.49566,-30.36746 -5.42276,1.44607 -9.76097,1.44607 -4.15745,0 -8.3149,-3.79593 -4.15745,-3.97669 -4.15745,-9.58021 0,-6.50731 26.02925,-11.20704 5.242,-34.705662 14.64145,-50.250907 9.39945,-15.726004 27.1138,-15.726004 8.49566,0 15.54524,8.314899 7.04959,8.314898 7.04959,19.702694 0,7.411106 -2.34986,11.749314 -2.34986,4.157449 -6.14579,4.157449 -3.79594,0 -6.1458,-3.434415 -2.1691,-3.434414 -3.0729,-7.411105 z"
     style="font-style:normal;font-variant:normal;font-weight:bold;font-stretch:normal;font-family:kalam;-inkscape-font-specification:'kalam Bold';fill:#ff8598;fill-opacity:1;stroke-width:4.51896667"
     id="path3988"
     inkscape:connector-curvature="0" /><path
     d="m 907.35934,133.52599 q 3.25366,2.89214 3.25366,5.242 0,2.34986 -2.1691,9.76097 -2.16911,7.4111 -2.89214,11.56855 -0.72304,3.97669 -1.26531,6.32656 -0.36152,2.34986 -0.54228,3.79593 -0.18076,1.26531 -0.72303,3.25366 -0.36152,1.98834 -0.72304,3.25365 -0.18076,1.08455 -0.72303,2.71138 -0.36152,1.44607 -0.9038,2.34986 -0.54227,0.72304 -1.26531,1.62683 -1.08455,1.44607 -3.61517,1.44607 -2.53062,0 -6.32655,-5.06124 -3.61518,-5.06124 -5.42276,-12.29159 -16.99132,17.35283 -28.55987,17.35283 -7.77263,0 -16.81056,-8.49566 -9.03793,-8.67641 -9.03793,-17.17207 0,-8.67642 7.77262,-24.58318 7.77262,-15.90676 21.14876,-29.46366 13.5569,-13.556902 26.75229,-13.556902 7.59186,0 17.53359,8.857172 9.94172,8.85718 9.94172,16.26828 0,7.23035 -5.42276,16.81056 z m -52.60077,28.55987 q 7.23035,0 19.16042,-9.76097 12.11083,-9.94173 15.00297,-24.94469 0.18076,-2.16911 3.0729,-2.53063 -0.54228,-10.30324 -3.43442,-10.30324 -7.23034,0 -16.26828,9.39945 -8.85717,9.39945 -14.64145,20.06421 -5.60352,10.66476 -5.60352,15.72601 0,1.44607 0.36152,1.98834 0.54228,0.36152 2.34986,0.36152 z"
     style="font-style:normal;font-variant:normal;font-weight:bold;font-stretch:normal;font-family:kalam;-inkscape-font-specification:'kalam Bold';fill:#ff8598;fill-opacity:1;stroke-width:4.51896667"
     id="path3990"
     inkscape:connector-curvature="0" /><path
     d="m 922.68144,156.48234 q 0,-12.65311 7.95338,-27.83683 7.95338,-15.18373 20.78725,-26.02925 13.01462,-10.845523 25.48697,-10.845523 6.32656,0 13.01463,8.314903 6.68807,8.13414 6.68807,14.64145 0,4.69972 -4.33821,4.69972 -2.1691,0 -5.96504,-1.98834 -3.79593,-1.98835 -7.77262,-1.98835 -3.97669,0 -11.3878,6.86883 -7.23034,6.68807 -13.01462,16.26828 -5.60352,9.39945 -5.60352,14.82221 0,5.42276 1.98835,7.04959 2.1691,1.62683 10.12248,1.62683 8.13414,0 14.64145,-1.44607 6.68808,-1.44607 9.76097,-2.89214 3.25366,-1.62683 5.78428,-1.62683 5.06124,0 5.06124,4.33821 0,7.95338 -13.91841,16.26828 -13.91842,8.13414 -27.83684,8.13414 -8.85717,0 -20.24497,-9.76097 -11.20704,-9.94172 -11.20704,-18.61814 z"
     style="font-style:normal;font-variant:normal;font-weight:bold;font-stretch:normal;font-family:kalam;-inkscape-font-specification:'kalam Bold';fill:#ff8598;fill-opacity:1;stroke-width:4.51896667"
     id="path3992"
     inkscape:connector-curvature="0" /><path
     d="m 1091.9224,125.39185 q 0,8.85717 -12.1109,15.90676 -11.93,7.04959 -24.5831,7.04959 -12.6531,0 -20.7873,-1.80759 -1.6268,4.88049 -1.6268,9.76097 0,4.88049 1.6268,7.04959 1.6268,1.98835 8.1342,1.98835 13.5569,0 23.1371,-2.53063 9.7609,-2.53062 10.1225,-2.53062 7.4111,0 7.4111,4.88049 0,7.04958 -11.7494,13.37614 -11.5685,6.32655 -26.933,6.32655 -15.1837,0 -24.4024,-9.58021 -9.2187,-9.58021 -9.2187,-22.59483 0,-13.19538 7.5919,-27.47532 7.7726,-14.27993 19.3411,-23.86014 11.5686,-9.760972 22.9564,-9.760972 11.5685,0 21.3295,11.387802 9.761,11.20703 9.761,22.41407 z m -20.968,-2.89214 q 0,-1.80759 -3.796,-5.242 -3.7959,-3.43441 -7.2303,-3.43441 -3.2537,0 -8.4957,4.88048 -5.242,4.69972 -9.9417,12.29159 1.6268,0.18076 4.6997,0.18076 24.764,0 24.764,-8.67642 z"
     style="font-style:normal;font-variant:normal;font-weight:bold;font-stretch:normal;font-family:kalam;-inkscape-font-specification:'kalam Bold';fill:#ff8598;fill-opacity:1;stroke-width:4.51896667"
     id="path3994"
     inkscape:connector-curvature="0" /></g></g>
<g
   id="g3766"
   transform="translate(-212.10546,-42.380502)">
</g>
<g
   id="g3768"
   transform="translate(-212.10546,-42.380502)">
</g>
<g
   id="g3770"
   transform="translate(-212.10546,-42.380502)">
</g>
<g
   id="g3772"
   transform="translate(-212.10546,-42.380502)">
</g>
<g
   id="g3774"
   transform="translate(-212.10546,-42.380502)">
</g>
<g
   id="g3776"
   transform="translate(-212.10546,-42.380502)">
</g>
<g
   id="g3778"
   transform="translate(-212.10546,-42.380502)">
</g>
<g
   id="g3780"
   transform="translate(-212.10546,-42.380502)">
</g>
<g
   id="g3782"
   transform="translate(-212.10546,-42.380502)">
</g>
<g
   id="g3784"
   transform="translate(-212.10546,-42.380502)">
</g>
<g
   id="g3786"
   transform="translate(-212.10546,-42.380502)">
</g>
<g
   id="g3788"
   transform="translate(-212.10546,-42.380502)">
</g>
<g
   id="g3790"
   transform="translate(-212.10546,-42.380502)">
</g>
<g
   id="g3792"
   transform="translate(-212.10546,-42.380502)">
</g>
<g
   id="g3794"
   transform="translate(-212.10546,-42.380502)">
</g>
</svg>