<?xml version="1.0" encoding="UTF-8" standalone="no"?>
<!-- Generator: Adobe Illustrator 19.1.0, SVG Export Plug-In . SVG Version: 6.00 Build 0)  -->

<svg
   xmlns:dc="http://purl.org/dc/elements/1.1/"
   xmlns:cc="http://creativecommons.org/ns#"
   xmlns:rdf="http://www.w3.org/1999/02/22-rdf-syntax-ns#"
   xmlns:svg="http://www.w3.org/2000/svg"
   xmlns="http://www.w3.org/2000/svg"
   xmlns:sodipodi="http://sodipodi.sourceforge.net/DTD/sodipodi-0.dtd"
   xmlns:inkscape="http://www.inkscape.org/namespaces/inkscape"
   version="1.1"
   id="Capa_1"
   x="0px"
   y="0px"
   viewBox="0 0 225.2295 243.67301"
   xml:space="preserve"
   sodipodi:docname="swirl.svg"
   width="225.22949"
   height="243.673"
   inkscape:version="0.92.4 (5da689c313, 2019-01-14)"><metadata
   id="metadata3801"><rdf:RDF><cc:Work
       rdf:about=""><dc:format>image/svg+xml</dc:format><dc:type
         rdf:resource="http://purl.org/dc/dcmitype/StillImage" /><dc:title></dc:title></cc:Work></rdf:RDF></metadata><defs
   id="defs3799" /><sodipodi:namedview
   pagecolor="#ffffff"
   bordercolor="#666666"
   borderopacity="1"
   objecttolerance="10"
   gridtolerance="10"
   guidetolerance="10"
   inkscape:pageopacity="0"
   inkscape:pageshadow="2"
   inkscape:window-width="1920"
   inkscape:window-height="1017"
   id="namedview3797"
   showgrid="false"
   inkscape:zoom="1.4968436"
   inkscape:cx="60.141048"
   inkscape:cy="65.815963"
   inkscape:window-x="-8"
   inkscape:window-y="-8"
   inkscape:window-maximized="1"
   inkscape:current-layer="g3764" />
<g
   id="g3764"
   transform="translate(-136.121,-20)">
	
	<path
   style="fill:#ff8598"
   d="M 322.769,38.293 C 303.618,26.379 281.486,20 258.371,20 c -32.654,0 -63.354,12.716 -86.443,35.806 -23.091,23.09 -35.807,53.79 -35.807,86.444 0,25.107 7.518,49.058 21.487,69.284 -8.23,-16.895 -12.85,-35.856 -12.85,-55.878 0,-57.576 46.842,-104.418 104.418,-104.418 47.164,0 85.535,38.371 85.535,85.535 0,38.833 -31.594,70.427 -70.428,70.427 -32.17,0 -58.343,-26.172 -58.343,-58.342 0,-26.839 21.835,-48.674 48.674,-48.674 22.574,0 40.939,18.365 40.939,40.939 0,5.523 -4.478,10 -10,10 -5.522,0 -10,-4.477 -10,-10 0,-11.546 -9.394,-20.939 -20.939,-20.939 -15.81,0 -28.674,12.863 -28.674,28.674 0,21.142 17.2,38.342 38.343,38.342 27.806,0 50.428,-22.622 50.428,-50.427 0,-36.136 -29.399,-65.535 -65.535,-65.535 -46.548,0 -84.418,37.87 -84.418,84.418 0,59.385 48.17,107.727 107.488,108.017 70.639,-24.688 131.463,-142.652 50.523,-225.38 z"
   id="path3760"
   inkscape:connector-curvature="0" />
	
</g>
<g
   id="g3766"
   transform="translate(-136.121,-20)">
</g>
<g
   id="g3768"
   transform="translate(-136.121,-20)">
</g>
<g
   id="g3770"
   transform="translate(-136.121,-20)">
</g>
<g
   id="g3772"
   transform="translate(-136.121,-20)">
</g>
<g
   id="g3774"
   transform="translate(-136.121,-20)">
</g>
<g
   id="g3776"
   transform="translate(-136.121,-20)">
</g>
<g
   id="g3778"
   transform="translate(-136.121,-20)">
</g>
<g
   id="g3780"
   transform="translate(-136.121,-20)">
</g>
<g
   id="g3782"
   transform="translate(-136.121,-20)">
</g>
<g
   id="g3784"
   transform="translate(-136.121,-20)">
</g>
<g
   id="g3786"
   transform="translate(-136.121,-20)">
</g>
<g
   id="g3788"
   transform="translate(-136.121,-20)">
</g>
<g
   id="g3790"
   transform="translate(-136.121,-20)">
</g>
<g
   id="g3792"
   transform="translate(-136.121,-20)">
</g>
<g
   id="g3794"
   transform="translate(-136.121,-20)">
</g>
</svg>